<svg xmlns="http://www.w3.org/2000/svg" aria-hidden="true" style="position:absolute;width:0;height:0;overflow:hidden">
  <defs>
 
<svg id="icon-location" width="16" height="16" viewBox="0 0 16 16" fill="none" xmlns="http://www.w3.org/2000/svg">
  <g clip-path="url(#clip0_15_838)">
    <path d="M14 6.66663C14 11.3333 8 15.3333 8 15.3333C8 15.3333 2 11.3333 2 6.66663C2 5.07533 2.63214 3.5492 3.75736 2.42399C4.88258 1.29877 6.4087 0.666626 8 0.666626C9.5913 0.666626 11.1174 1.29877 12.2426 2.42399C13.3679 3.5492 14 5.07533 14 6.66663Z" stroke="#11101C" stroke-width="1.5" stroke-linecap="round" stroke-linejoin="round" />
    <path d="M8 8.66663C9.10457 8.66663 10 7.7712 10 6.66663C10 5.56206 9.10457 4.66663 8 4.66663C6.89543 4.66663 6 5.56206 6 6.66663C6 7.7712 6.89543 8.66663 8 8.66663Z" stroke="#11101C" stroke-width="1.5" stroke-linecap="round" stroke-linejoin="round" />
  </g>
  <defs>
    <clipPath id="clip0_15_838">
      <rect width="16" height="16" fill="white" />
    </clipPath>
  </defs>
</svg>
<svg id="icon-close-eye" width="20" height="20" viewBox="0 0 20 20" fill="none" xmlns="http://www.w3.org/2000/svg">
  <g clip-path="url(#clip0_31_2514)">
    <path d="M14.95 14.9499C13.5255 16.0358 11.7909 16.6373 9.99998 16.6666C4.16665 16.6666 0.833313 9.99994 0.833313 9.99994C1.86989 8.06819 3.30759 6.38045 5.04998 5.04994M8.24998 3.53327C8.82359 3.39901 9.41087 3.33189 9.99998 3.33327C15.8333 3.33327 19.1666 9.99994 19.1666 9.99994C18.6608 10.9463 18.0575 11.8372 17.3666 12.6583M11.7666 11.7666C11.5378 12.0122 11.2618 12.2092 10.9551 12.3459C10.6484 12.4825 10.3174 12.556 9.98172 12.5619C9.64605 12.5678 9.31262 12.5061 9.00132 12.3803C8.69003 12.2546 8.40725 12.0675 8.16985 11.8301C7.93246 11.5927 7.74531 11.3099 7.61957 10.9986C7.49383 10.6873 7.43209 10.3539 7.43801 10.0182C7.44393 9.68252 7.5174 9.35148 7.65404 9.04481C7.79068 8.73815 7.98769 8.46215 8.23331 8.23327" stroke="#11101C" stroke-width="2" stroke-linecap="round" stroke-linejoin="round" />
    <path d="M0.833313 0.833374L19.1666 19.1667" stroke="#11101C" stroke-width="2" stroke-linecap="round" stroke-linejoin="round" />
  </g>
  <defs>
    <clipPath id="clip0_31_2514">
      <rect width="20" height="20" fill="white" />
    </clipPath>
  </defs>
</svg>
<svg id="icon-open-eye"  width="20" height="20" viewBox="0 0 20 20" fill="none" xmlns="http://www.w3.org/2000/svg">
  <g clip-path="url(#clip0_31_2517)">
    <path d="M0.833313 10C0.833313 10 4.16665 3.33337 9.99998 3.33337C15.8333 3.33337 19.1666 10 19.1666 10C19.1666 10 15.8333 16.6667 9.99998 16.6667C4.16665 16.6667 0.833313 10 0.833313 10Z" stroke="#11101C" stroke-width="2" stroke-linecap="round" stroke-linejoin="round" />
    <path d="M10 12.5C11.3807 12.5 12.5 11.3807 12.5 10C12.5 8.61929 11.3807 7.5 10 7.5C8.61929 7.5 7.5 8.61929 7.5 10C7.5 11.3807 8.61929 12.5 10 12.5Z" stroke="#11101C" stroke-width="2" stroke-linecap="round" stroke-linejoin="round" />
  </g>
  <defs>
    <clipPath id="clip0_31_2517">
      <rect width="20" height="20" fill="white" />
    </clipPath>
  </defs>
</svg>
<svg id="icon-heart" width="26" height="22" viewBox="0 0 26 22" fill="none" xmlns="http://www.w3.org/2000/svg">
  <path d="M22.5767 2.99419C22.0234 2.44061 21.3664 2.00147 20.6433 1.70187C19.9202 1.40226 19.1452 1.24805 18.3625 1.24805C17.5798 1.24805 16.8048 1.40226 16.0817 1.70187C15.3586 2.00147 14.7017 2.44061 14.1484 2.99419L13 4.14252L11.8517 2.99419C10.734 1.87652 9.21815 1.24863 7.63753 1.24863C6.05691 1.24863 4.54103 1.87652 3.42336 2.99419C2.30569 4.11186 1.6778 5.62774 1.6778 7.20836C1.6778 8.78898 2.30569 10.3049 3.42336 11.4225L4.57169 12.5709L13 20.9992L21.4284 12.5709L22.5767 11.4225C23.1303 10.8692 23.5694 10.2122 23.869 9.48916C24.1686 8.76608 24.3228 7.99105 24.3228 7.20836C24.3228 6.42566 24.1686 5.65064 23.869 4.92756C23.5694 4.20448 23.1303 3.54751 22.5767 2.99419Z" stroke="#11101C" stroke-width="2" stroke-linecap="round" stroke-linejoin="round" />
</svg>
<svg id="icon-heart-active" width="26" height="22" viewBox="0 0 26 22" fill="none" xmlns="http://www.w3.org/2000/svg">
  <path d="M22.5766 2.99419C22.0233 2.44061 21.3663 2.00147 20.6433 1.70187C19.9202 1.40226 19.1452 1.24805 18.3625 1.24805C17.5798 1.24805 16.8047 1.40226 16.0817 1.70187C15.3586 2.00147 14.7016 2.44061 14.1483 2.99419L13 4.14252L11.8516 2.99419C10.734 1.87652 9.21809 1.24863 7.63747 1.24863C6.05685 1.24863 4.54097 1.87652 3.4233 2.99419C2.30563 4.11186 1.67773 5.62774 1.67773 7.20836C1.67773 8.78898 2.30563 10.3049 3.4233 11.4225L4.57163 12.5709L13 20.9992L21.4283 12.5709L22.5766 11.4225C23.1302 10.8692 23.5693 10.2122 23.869 9.48916C24.1686 8.76608 24.3228 7.99105 24.3228 7.20836C24.3228 6.42566 24.1686 5.65064 23.869 4.92756C23.5693 4.20448 23.1302 3.54751 22.5766 2.99419Z" fill="#F03F3B" stroke="#F03F3B" stroke-width="2" stroke-linecap="round" stroke-linejoin="round" />
</svg>
<svg id="icon-clock" width="20" height="20" viewBox="0 0 20 20" fill="none" xmlns="http://www.w3.org/2000/svg">
  <g clip-path="url(#clip0_31_2474)">
    <path d="M10 18.3333C14.6024 18.3333 18.3333 14.6023 18.3333 9.99996C18.3333 5.39759 14.6024 1.66663 10 1.66663C5.39763 1.66663 1.66667 5.39759 1.66667 9.99996C1.66667 14.6023 5.39763 18.3333 10 18.3333Z" stroke="#11101C" stroke-width="1.5" stroke-linecap="round" stroke-linejoin="round" />
    <path d="M10 5V10L13.3333 11.6667" stroke="#11101C" stroke-width="1.5" stroke-linecap="round" stroke-linejoin="round" />
  </g>
  <defs>
    <clipPath id="clip0_31_2474">
      <rect width="20" height="20" fill="white" />
    </clipPath>
  </defs>
</svg>
<svg   id="icon-arrow-down" width="20" height="20" viewBox="0 0 20 20" fill="none" xmlns="http://www.w3.org/2000/svg">
  <path d="M5 7.5L10 12.5L15 7.5" stroke="#FBFBFB" stroke-width="2" stroke-linecap="round" stroke-linejoin="round" />
</svg>

<svg id="icon-arrow-top-right" width="15" height="17" viewBox="0 0 15 17" fill="none" xmlns="http://www.w3.org/2000/svg">
  <path d="M13.4066 1.67313C13.3298 1.12622 12.8241 0.745174 12.2772 0.822036L3.36476 2.0746C2.81785 2.15146 2.43681 2.65713 2.51367 3.20404C2.59053 3.75095 3.0962 4.13199 3.64311 4.05513L11.5653 2.94175L12.6786 10.8639C12.7555 11.4108 13.2612 11.7918 13.8081 11.715C14.355 11.6381 14.736 11.1325 14.6592 10.5855L13.4066 1.67313ZM2.38231 16.7896L13.215 2.41412L11.6177 1.21049L0.785044 15.5859L2.38231 16.7896Z" fill="#FBFBFB" />
</svg>
<svg id="icon-arrow-right" width="20" height="17" viewBox="0 0 20 16" fill="none" xmlns="http://www.w3.org/2000/svg">
  <path d="M19.7179 8.53774C20.1015 8.14046 20.0905 7.50739 19.6932 7.12374L13.2191 0.871819C12.8219 0.48817 12.1888 0.49922 11.8051 0.8965C11.4215 1.29378 11.4325 1.92685 11.8298 2.3105L17.5845 7.86776L12.0273 13.6225C11.6436 14.0198 11.6547 14.6528 12.052 15.0365C12.4492 15.4201 13.0823 15.4091 13.466 15.0118L19.7179 8.53774ZM1.01873 9.15707L19.016 8.84293L18.9811 6.84324L0.983829 7.15738L1.01873 9.15707Z" fill="#FBFBFB" />
</svg>

<svg id="icon-done" width="30" height="30" viewBox="0 0 30 30" fill="none" xmlns="http://www.w3.org/2000/svg">
  <path fill-rule="evenodd" clip-rule="evenodd" d="M7.5 12.5L5 15L12.5 22.5L25 10L22.5 7.5L12.5 17.5L7.5 12.5Z" fill="#FBFBFB" />
</svg>

<svg id="icon-close" width="32" height="32" viewBox="0 0 32 32" fill="none" xmlns="http://www.w3.org/2000/svg">
  <path d="M24 8L8 24" stroke="#11101C" stroke-width="2.5" stroke-linecap="round" stroke-linejoin="round" />
  <path d="M8 8L24 24" stroke="#11101C" stroke-width="2.5" stroke-linecap="round" stroke-linejoin="round" />
</svg>
<svg id="icon-close-mobile" width="32" height="32" viewBox="0 0 32 32" fill="none" xmlns="http://www.w3.org/2000/svg">
  <path d="M24 8L8 24" stroke="#fbfbfb" stroke-width="2.5" stroke-linecap="round" stroke-linejoin="round" />
  <path d="M8 8L24 24" stroke="#fbfbfb" stroke-width="2.5" stroke-linecap="round" stroke-linejoin="round" />
</svg>
<svg id="icon-online" width="14" height="14" viewBox="0 0 14 14" fill="none" xmlns="http://www.w3.org/2000/svg">
  <circle cx="7" cy="7" r="7" fill="#FBFBFB" />
  <circle cx="6.99967" cy="7.00004" r="4.66667" fill="#38CD3E" />
</svg>
<svg id="icon-star" viewBox="0 0 26 28">
<path d="M26 10.109c0 0.281-0.203 0.547-0.406 0.75l-5.672 5.531 1.344 7.812c0.016 0.109 0.016 0.203 0.016 0.313 0 0.406-0.187 0.781-0.641 0.781-0.219 0-0.438-0.078-0.625-0.187l-7.016-3.687-7.016 3.687c-0.203 0.109-0.406 0.187-0.625 0.187-0.453 0-0.656-0.375-0.656-0.781 0-0.109 0.016-0.203 0.031-0.313l1.344-7.812-5.688-5.531c-0.187-0.203-0.391-0.469-0.391-0.75 0-0.469 0.484-0.656 0.875-0.719l7.844-1.141 3.516-7.109c0.141-0.297 0.406-0.641 0.766-0.641s0.625 0.344 0.766 0.641l3.516 7.109 7.844 1.141c0.375 0.063 0.875 0.25 0.875 0.719z"></path>
</svg>
<svg id="icon-user" width="24" height="24" viewBox="0 0 24 24" fill="none" xmlns="http://www.w3.org/2000/svg">
  <path d="M12 4C13.0609 4 14.0783 4.42143 14.8284 5.17157C15.5786 5.92172 16 6.93913 16 8C16 9.06087 15.5786 10.0783 14.8284 10.8284C14.0783 11.5786 13.0609 12 12 12C10.9391 12 9.92172 11.5786 9.17157 10.8284C8.42143 10.0783 8 9.06087 8 8C8 6.93913 8.42143 5.92172 9.17157 5.17157C9.92172 4.42143 10.9391 4 12 4ZM12 14C16.42 14 20 15.79 20 18V20H4V18C4 15.79 7.58 14 12 14Z" fill="#FFA500" />
</svg>
<svg id="icon-burger-menu" viewBox="0 0 24 24">
<path d="M3 13h18c0.552 0 1-0.448 1-1s-0.448-1-1-1h-18c-0.552 0-1 0.448-1 1s0.448 1 1 1zM3 7h18c0.552 0 1-0.448 1-1s-0.448-1-1-1h-18c-0.552 0-1 0.448-1 1s0.448 1 1 1zM3 19h18c0.552 0 1-0.448 1-1s-0.448-1-1-1h-18c-0.552 0-1 0.448-1 1s0.448 1 1 1z"></path>
</svg>
<svg id="icon-reset" viewBox="0 0 32 32">
<path d="M32 12h-12l4.485-4.485c-2.267-2.266-5.28-3.515-8.485-3.515s-6.219 1.248-8.485 3.515c-2.266 2.267-3.515 5.28-3.515 8.485s1.248 6.219 3.515 8.485c2.267 2.266 5.28 3.515 8.485 3.515s6.219-1.248 8.485-3.515c0.189-0.189 0.371-0.384 0.546-0.583l3.010 2.634c-2.933 3.349-7.239 5.464-12.041 5.464-8.837 0-16-7.163-16-16s7.163-16 16-16c4.418 0 8.418 1.791 11.313 4.687l4.687-4.687v12z"></path>
</svg>

  </defs>
</svg>